<svg id="Capa_1" enable-background="new 0 0 512 512" height="512" viewBox="0 0 512 512" width="512" xmlns="http://www.w3.org/2000/svg"><g><path d="m310 165v-120c0-24.813-20.187-45-45-45h-220c-24.813 0-45 20.187-45 45v120c0 24.813 20.187 45 45 45h25v45c0 6.067 3.655 11.537 9.26 13.858 1.856.769 3.805 1.142 5.737 1.142 3.904 0 7.741-1.524 10.61-4.394l55.607-55.606h113.786c24.813 0 45-20.187 45-45zm-30-45h-250v-30h250zm-235-90h220c8.271 0 15 6.729 15 15v15h-250v-15c0-8.271 6.729-15 15-15zm100 150c-3.978 0-7.793 1.581-10.606 4.394l-34.394 34.393v-23.787c0-8.284-6.716-15-15-15h-40c-8.271 0-15-6.729-15-15v-15h250v15c0 8.271-6.729 15-15 15z"/><path d="m467 242h-220c-24.813 0-45 20.187-45 45v120c0 24.813 20.187 45 45 45h113.787l55.607 55.606c2.87 2.87 6.706 4.394 10.61 4.394 1.932 0 3.881-.374 5.737-1.142 5.605-2.322 9.26-7.792 9.26-13.858v-45h25c24.813 0 45-20.187 45-45v-120c-.001-24.813-20.188-45-45.001-45zm-220 30h220c8.271 0 15 6.729 15 15v15h-250v-15c0-8.271 6.729-15 15-15zm235 60v30h-250v-30zm-15 90h-40c-8.284 0-15 6.716-15 15v23.787l-34.394-34.393c-2.812-2.813-6.628-4.394-10.606-4.394h-120c-8.271 0-15-6.729-15-15v-15h250v15c0 8.271-6.729 15-15 15z"/></g></svg>